<svg t="1646621992329" class="icon" viewBox="0 0 1024 1024" version="1.1" xmlns="http://www.w3.org/2000/svg" p-id="6204" width="20" height="20"><path d="M512 2.27555555C230.51377778 2.27555555 2.27555555 230.51377778 2.27555555 512s228.23822222 509.72444445 509.72444445 509.72444445 509.72444445-228.23822222 509.72444445-509.72444445S793.48622222 2.27555555 512 2.27555555z m25.37244445 756.84977778l0.22755555 36.06755556c0 5.00622222-4.096 9.216-9.10222222 9.216h-32.31288889c-5.00622222 0-9.10222222-4.096-9.10222222-9.10222222v-35.72622222C386.048 752.07111111 338.48888889 694.49955555 333.36888889 631.92177778c-0.45511111-5.34755555 3.75466667-9.89866667 9.10222222-9.89866667h52.56533334c4.43733333 0 8.30577778 3.18577778 8.98844444 7.50933334 5.80266667 36.06755555 33.90577778 63.03288889 84.30933333 69.74577777V536.91733333l-28.10311111-7.168c-59.50577778-14.22222222-116.16711111-51.31377778-116.16711111-128.22755555 0-82.944 63.03288889-127.54488889 143.58755555-135.39555556v-37.54666667c0-5.00622222 4.096-9.10222222 9.10222223-9.10222222h31.97155555c5.00622222 0 9.10222222 4.096 9.10222222 9.10222222v37.20533334c77.93777778 7.85066667 136.41955555 53.36177778 143.24622223 124.24533333 0.56888889 5.34755555-3.64088889 10.01244445-9.10222223 10.01244445h-51.08622222c-4.55111111 0-8.41955555-3.41333333-8.98844444-7.85066667-4.55111111-33.22311111-31.17511111-60.30222222-74.52444444-66.21866667v152.80355556l28.89955555 6.71288889c73.728 18.20444445 123.904 53.47555555 123.904 132.43733333 0 85.67466667-63.71555555 133.46133333-152.80355555 141.19822222z" fill="#333303" p-id="6205"></path><path d="M414.83377778 396.288c0 28.89955555 17.86311111 51.31377778 56.32 65.19466667 5.34755555 2.16177778 10.69511111 3.86844445 17.06666667 5.68888888v-141.08444444c-41.984 5.34755555-73.38666667 28.89955555-73.38666667 70.20088889z m132.55111111 153.82755555c-3.18577778-0.68266667-6.37155555-1.47911111-10.01244444-2.5031111V699.73333333c48.46933333-4.32355555 81.92-30.94755555 81.92-75.54844444 0-34.92977778-18.09066667-57.68533333-71.90755556-74.06933334z" fill="#333303" p-id="6206"></path></svg>